<svg xmlns="http://www.w3.org/2000/svg">
  <symbol id="clip-path">
    <path
      d="M20.8797 22.0499C22.3744 9.47243 33.0391 0 45.7051 0H448.673C465.338 0 477.337 15.9968 472.674 31.9959L422.248 204.996C419.138 215.665 409.359 223 398.247 223H25.1467C10.1702 223 -1.44587 209.922 0.321424 195.05L20.8797 22.0499Z"
      fill="#D9D9D9" />
  </symbol>

  <symbol id="person">
    <path
      d="M27.2362 4.8772H46.1225C50.4484 4.8772 52.8946 5.50488 55.7684 8.32095L56.1009 8.65345L78.0493 30.9598C80.6821 33.6571 81.5168 35.6487 81.7254 39.162L81.7662 40.073L81.7831 41.0552L81.7865 77.6777C81.7865 85.7816 77.8525 89.9548 69.9488 90.1176L69.4603 90.1227H27.2362C19.2087 90.1227 15.0779 86.1514 14.915 78.1714L14.9099 77.6777V17.3612C14.9099 9.25738 18.8813 5.04684 26.7493 4.88229L27.2362 4.8772ZM45.2471 11.2778H27.5941C23.5905 11.2778 21.453 13.4018 21.3173 17.1051L21.3105 17.4817V77.559C21.3105 81.4065 23.3225 83.5779 27.1632 83.7136L27.5534 83.7221H69.143C73.1449 83.7221 75.2468 81.6728 75.3791 77.9373L75.3859 77.559V41.8543H52.7216C47.9326 41.8543 45.393 39.5284 45.2522 34.8022L45.2471 34.3781V11.2778ZM48.3567 65.4855C57.2511 65.4855 62.7967 71.5977 62.7967 76.0271C62.7967 77.4725 61.9163 78.2426 59.4802 78.3071L59.1392 78.3105H37.5742C34.8616 78.3105 33.8997 77.5386 33.8997 76.0271C33.8997 71.5994 39.4471 65.4855 48.3567 65.4855ZM48.3567 47.4406C52.0312 47.4406 55.2238 50.5824 55.2238 54.8234C55.2238 59.1154 52.0481 62.4133 48.3567 62.4133C44.6822 62.4133 41.4896 59.1154 41.4896 54.8591C41.4896 50.6519 44.6822 47.4406 48.3567 47.4406ZM51.2508 12.5111V33.6232C51.2508 35.1211 51.814 35.7726 53.1729 35.8438L53.4375 35.8506H74.1509L51.2508 12.5111Z"
      fill="#CF1D05" />
  </symbol>

  <symbol id="detective">
    <path
      d="M95 44.5313C95 45.3186 94.6872 46.0738 94.1305 46.6305C93.5737 47.1873 92.8186 47.5 92.0312 47.5H2.96875C2.18139 47.5 1.42628 47.1873 0.869527 46.6305C0.312778 46.0738 0 45.3186 0 44.5313C0 43.7439 0.312778 42.9888 0.869527 42.4321C1.42628 41.8753 2.18139 41.5625 2.96875 41.5625H13.3297L30.9566 17.2893C31.4908 16.5559 32.1859 15.9547 32.9886 15.5318C33.7914 15.1089 34.6803 14.8756 35.5872 14.8498C36.4942 14.824 37.3949 15.0064 38.2204 15.383C39.0459 15.7595 39.774 16.3203 40.349 17.0221L45.1176 22.5514L45.1918 22.6368C45.4681 22.9839 45.8191 23.2642 46.2188 23.4569C46.6184 23.6495 47.0563 23.7496 47.5 23.7496C47.9437 23.7496 48.3816 23.6495 48.7812 23.4569C49.1809 23.2642 49.5319 22.9839 49.8082 22.6368L49.8824 22.5514L54.651 17.0221C55.226 16.3203 55.9541 15.7595 56.7796 15.383C57.6051 15.0064 58.5058 14.824 59.4128 14.8498C60.3197 14.8756 61.2086 15.1089 62.0114 15.5318C62.8141 15.9547 63.5092 16.5559 64.0434 17.2893L81.6703 41.5625H92.0312C92.8186 41.5625 93.5737 41.8753 94.1305 42.4321C94.6872 42.9888 95 43.7439 95 44.5313ZM66.7969 53.4375C63.5112 53.4382 60.341 54.6496 57.8923 56.8403C55.4435 59.031 53.8879 62.0472 53.5229 65.3125H41.4771C41.1112 62.0502 39.557 59.0368 37.1109 56.8474C34.6649 54.658 31.4984 53.4459 28.2156 53.4423C24.9328 53.4387 21.7637 54.644 19.3129 56.828C16.8621 59.0121 15.3012 62.0221 14.9282 65.2836C14.5552 68.5451 15.396 71.8298 17.2904 74.5108C19.1847 77.1919 21.9999 79.0816 25.1987 79.8193C28.3975 80.5571 31.756 80.0912 34.6332 78.5106C37.5104 76.9301 39.705 74.3455 40.798 71.25H54.202C55.0184 73.5592 56.4539 75.5995 58.3515 77.1478C60.2492 78.6962 62.536 79.6932 64.962 80.0296C67.388 80.3661 69.8598 80.0292 72.1073 79.0557C74.3547 78.0822 76.2913 76.5096 77.7053 74.5098C79.1193 72.51 79.9564 70.1599 80.125 67.7165C80.2936 65.2731 79.7872 62.8304 78.6613 60.6553C77.5353 58.4803 75.8331 56.6566 73.7406 55.3836C71.6482 54.1107 69.2461 53.4375 66.7969 53.4375Z"
      fill="#CF1D05" />
  </symbol>

  <symbol id="tree">
    <path
      d="M72.9385 23.7834C70.8813 18.7239 67.3621 14.3928 62.8308 11.3437C58.2994 8.29455 52.9617 6.66589 47.5 6.66589C42.0383 6.66589 36.7007 8.29455 32.1693 11.3437C27.638 14.3928 24.1188 18.7239 22.0616 23.7834C17.4848 25.813 13.5953 29.1272 10.865 33.3238C8.13466 37.5204 6.68078 42.4191 6.67972 47.4258C6.64261 61.1971 18.2319 73.1055 31.9846 73.4765C36.6272 73.5853 41.2148 72.4529 45.2735 70.1961V86.0937C45.2735 86.6843 45.508 87.2506 45.9256 87.6682C46.3432 88.0857 46.9095 88.3203 47.5 88.3203C48.0905 88.3203 48.6569 88.0857 49.0744 87.6682C49.492 87.2506 49.7266 86.6843 49.7266 86.0937V70.1961C53.5857 72.3428 57.9278 73.4717 62.3438 73.4765H63.0006C76.7682 73.1055 88.3575 61.1933 88.3203 47.4258C88.3193 42.4191 86.8654 37.5204 84.1351 33.3238C81.4047 29.1272 77.5153 25.813 72.9385 23.7834ZM62.9004 69.0234C58.1798 69.1479 53.5497 67.7132 49.7266 64.9414V48.8767L66.3071 40.5865C66.8356 40.3227 67.2377 39.8598 67.4249 39.2996C67.6121 38.7394 67.5691 38.1277 67.3053 37.5992C67.0415 37.0707 66.5786 36.6686 66.0184 36.4814C65.4582 36.2942 64.8465 36.3372 64.318 36.601L49.7266 43.8967V32.6562C49.7266 32.0657 49.492 31.4994 49.0744 31.0818C48.6569 30.6643 48.0905 30.4297 47.5 30.4297C46.9095 30.4297 46.3432 30.6643 45.9256 31.0818C45.508 31.4994 45.2735 32.0657 45.2735 32.6562V52.8029L30.6821 45.5072C30.1535 45.2434 29.5419 45.2004 28.9817 45.3876C28.4214 45.5748 27.9585 45.9769 27.6948 46.5054C27.431 47.034 27.388 47.6456 27.5752 48.2058C27.7624 48.7661 28.1645 49.229 28.693 49.4928L45.2735 57.783V64.9414C41.4476 67.7077 36.8194 69.1418 32.0996 69.0234C20.7033 68.7377 11.1032 58.8554 11.1328 47.448C11.1326 43.1592 12.4186 38.9688 14.8246 35.4184C17.2305 31.8679 20.646 29.1206 24.6295 27.5314C24.9188 27.4146 25.1802 27.2382 25.3969 27.0138C25.6136 26.7894 25.7808 26.522 25.8875 26.2289C27.5055 21.7972 30.4467 17.97 34.3126 15.2659C38.1785 12.5618 42.7822 11.1115 47.5 11.1115C52.2178 11.1115 56.8216 12.5618 60.6875 15.2659C64.5534 17.97 67.4946 21.7972 69.1125 26.2289C69.2193 26.522 69.3864 26.7894 69.6031 27.0138C69.8199 27.2382 70.0813 27.4146 70.3705 27.5314C74.3526 29.1195 77.7671 31.865 80.173 35.4133C82.5789 38.9617 83.8657 43.1498 83.8672 47.4369C83.8969 58.848 74.2967 68.7265 62.9004 69.0234Z"
      fill="#CF1D05" />
  </symbol>

  <symbol id="facebook">
    <g clip-path="url(#clip0_1_262)">
      <path
        d="M33 16.5C33 7.38736 25.6126 0 16.5 0C7.38736 0 0 7.38736 0 16.5C0 24.7356 6.03384 31.5618 13.9219 32.7996V21.2695H9.73242V16.5H13.9219V12.8648C13.9219 8.72953 16.3853 6.44531 20.1542 6.44531C21.9594 6.44531 23.8477 6.76758 23.8477 6.76758V10.8281H21.7671C19.7174 10.8281 19.0781 12.1 19.0781 13.405V16.5H23.6543L22.9228 21.2695H19.0781V32.7996C26.9662 31.5618 33 24.7357 33 16.5Z"
        fill="#1877F2" />
      <path
        d="M22.9228 21.2695L23.6543 16.5H19.0781V13.405C19.0781 12.0999 19.7174 10.8281 21.7671 10.8281H23.8477V6.76758C23.8477 6.76758 21.9594 6.44531 20.1541 6.44531C16.3853 6.44531 13.9219 8.72953 13.9219 12.8648V16.5H9.73242V21.2695H13.9219V32.7996C14.7747 32.9332 15.6367 33.0002 16.5 33C17.3633 33.0003 18.2253 32.9332 19.0781 32.7996V21.2695H22.9228Z"
        fill="white" />
    </g>
    <defs>
      <clipPath id="clip0_1_262">
        <rect width="33" height="33" fill="white" />
      </clipPath>
    </defs>
  </symbol>


</svg>